<svg viewBox="0 0 680 472" width="680" height="472" role="img" xmlns="http://www.w3.org/2000/svg" font-family="system-ui, -apple-system, 'Helvetica Neue', 'PingFang SC', 'Microsoft YaHei', sans-serif">
<title>论文阅读软件的整体分层架构</title>
<desc>四层结构：表现层、应用层、领域层、基础设施层，以及每层包含的模块。层间依赖单向向上，领域层与基础设施层之间为依赖倒置。</desc>
<defs>
<marker id="arrow" viewBox="0 0 10 10" refX="8" refY="5" markerWidth="6" markerHeight="6" orient="auto-start-reverse">
<path d="M2 1L8 5L2 9" fill="none" stroke="context-stroke" stroke-width="1.5" stroke-linecap="round" stroke-linejoin="round"/>
</marker>
</defs>

<rect x="0" y="0" width="680" height="472" fill="#FFFFFF"/>
<rect x="40" y="40" width="600" height="412" rx="20" fill="none" stroke="#D3D1C7" stroke-width="0.5"/>

<rect x="56" y="64" width="568" height="96" rx="12" fill="#F7F6F3" stroke="#D3D1C7" stroke-width="0.5"/>
<text x="68" y="82" font-size="12" fill="#444441" dominant-baseline="central">表现层</text>
<text x="612" y="82" font-size="12" fill="#5F5E5A" text-anchor="end" dominant-baseline="central">WebView · React + TypeScript</text>

<rect x="68" y="96" width="173" height="52" rx="8" fill="#E6F1FB" stroke="#185FA5" stroke-width="0.5"/>
<text x="154" y="115" font-size="13" fill="#0C447C" text-anchor="middle" dominant-baseline="central">文献库侧边栏</text>
<text x="154" y="133" font-size="11" fill="#185FA5" text-anchor="middle" dominant-baseline="central">归档 · 分类 · 检索</text>

<rect x="253" y="96" width="173" height="52" rx="8" fill="#E6F1FB" stroke="#185FA5" stroke-width="0.5"/>
<text x="340" y="115" font-size="13" fill="#0C447C" text-anchor="middle" dominant-baseline="central">阅读器视图</text>
<text x="340" y="133" font-size="11" fill="#185FA5" text-anchor="middle" dominant-baseline="central">PDF 渲染 · 标注</text>

<rect x="438" y="96" width="173" height="52" rx="8" fill="#E6F1FB" stroke="#185FA5" stroke-width="0.5"/>
<text x="524" y="115" font-size="13" fill="#0C447C" text-anchor="middle" dominant-baseline="central">双语对照视图</text>
<text x="524" y="133" font-size="11" fill="#185FA5" text-anchor="middle" dominant-baseline="central">原文段 + 译文段</text>

<path d="M340 161 V175" fill="none" stroke="#888780" stroke-width="1" marker-end="url(#arrow)"/>

<rect x="56" y="176" width="568" height="72" rx="12" fill="#F7F6F3" stroke="#D3D1C7" stroke-width="0.5"/>
<text x="68" y="194" font-size="12" fill="#444441" dominant-baseline="central">应用层</text>
<text x="612" y="194" font-size="12" fill="#5F5E5A" text-anchor="end" dominant-baseline="central">用例编排 · IPC 边界</text>

<rect x="68" y="204" width="128" height="32" rx="8" fill="#EEEDFE" stroke="#534AB7" stroke-width="0.5"/>
<text x="132" y="220" font-size="12" fill="#3C3489" text-anchor="middle" dominant-baseline="central">导入论文</text>
<rect x="206" y="204" width="128" height="32" rx="8" fill="#EEEDFE" stroke="#534AB7" stroke-width="0.5"/>
<text x="270" y="220" font-size="12" fill="#3C3489" text-anchor="middle" dominant-baseline="central">翻译文档</text>
<rect x="344" y="204" width="128" height="32" rx="8" fill="#EEEDFE" stroke="#534AB7" stroke-width="0.5"/>
<text x="408" y="220" font-size="12" fill="#3C3489" text-anchor="middle" dominant-baseline="central">组织文献库</text>
<rect x="482" y="204" width="128" height="32" rx="8" fill="#EEEDFE" stroke="#534AB7" stroke-width="0.5"/>
<text x="546" y="220" font-size="12" fill="#3C3489" text-anchor="middle" dominant-baseline="central">导出对照稿</text>

<path d="M340 249 V263" fill="none" stroke="#888780" stroke-width="1" marker-end="url(#arrow)"/>

<rect x="56" y="264" width="568" height="72" rx="12" fill="#F7F6F3" stroke="#D3D1C7" stroke-width="0.5"/>
<text x="68" y="282" font-size="12" fill="#444441" dominant-baseline="central">领域层</text>
<text x="612" y="282" font-size="12" fill="#5F5E5A" text-anchor="end" dominant-baseline="central">纯逻辑 · 零 IO 依赖</text>

<rect x="68" y="292" width="128" height="32" rx="8" fill="#E1F5EE" stroke="#0F6E56" stroke-width="0.5"/>
<text x="132" y="308" font-size="12" fill="#085041" text-anchor="middle" dominant-baseline="central">Paper 聚合</text>
<rect x="206" y="292" width="128" height="32" rx="8" fill="#E1F5EE" stroke="#0F6E56" stroke-width="0.5"/>
<text x="270" y="308" font-size="12" fill="#085041" text-anchor="middle" dominant-baseline="central">Document / Block</text>
<rect x="344" y="292" width="128" height="32" rx="8" fill="#E1F5EE" stroke="#0F6E56" stroke-width="0.5"/>
<text x="408" y="308" font-size="12" fill="#085041" text-anchor="middle" dominant-baseline="central">Segment / 译文</text>
<rect x="482" y="292" width="128" height="32" rx="8" fill="#E1F5EE" stroke="#0F6E56" stroke-width="0.5"/>
<text x="546" y="308" font-size="12" fill="#085041" text-anchor="middle" dominant-baseline="central">Job 状态机</text>

<path d="M340 351 V337" fill="none" stroke="#888780" stroke-width="1" stroke-dasharray="3 3" marker-end="url(#arrow)"/>

<rect x="56" y="352" width="568" height="76" rx="12" fill="#F7F6F3" stroke="#D3D1C7" stroke-width="0.5"/>
<text x="68" y="370" font-size="12" fill="#444441" dominant-baseline="central">基础设施层</text>
<text x="612" y="370" font-size="12" fill="#5F5E5A" text-anchor="end" dominant-baseline="central">适配器 · 可替换</text>

<rect x="68" y="380" width="128" height="36" rx="8" fill="#FAEEDA" stroke="#854F0B" stroke-width="0.5"/>
<text x="132" y="398" font-size="12" fill="#633806" text-anchor="middle" dominant-baseline="central">SQLite + FTS5</text>
<rect x="206" y="380" width="128" height="36" rx="8" fill="#FAEEDA" stroke="#854F0B" stroke-width="0.5"/>
<text x="270" y="398" font-size="12" fill="#633806" text-anchor="middle" dominant-baseline="central">PDFium 解析</text>
<rect x="344" y="380" width="128" height="36" rx="8" fill="#FAEEDA" stroke="#854F0B" stroke-width="0.5"/>
<text x="408" y="398" font-size="12" fill="#633806" text-anchor="middle" dominant-baseline="central">版面分析进程</text>
<rect x="482" y="380" width="128" height="36" rx="8" fill="#FAEEDA" stroke="#854F0B" stroke-width="0.5"/>
<text x="546" y="398" font-size="12" fill="#633806" text-anchor="middle" dominant-baseline="central">LLM Provider</text>
</svg>
