<svg viewBox="0 0 680 332" width="680" height="332" role="img" xmlns="http://www.w3.org/2000/svg" font-family="system-ui, -apple-system, 'Helvetica Neue', 'PingFang SC', 'Microsoft YaHei', sans-serif">
<title>论文导入与解析流水线</title>
<desc>PDF 文件经指纹去重、元数据抽取、内容提取、版面分析四个阶段，产出 Block 表、Segment 表和资产与全文索引。</desc>
<defs>
<marker id="arrow" viewBox="0 0 10 10" refX="8" refY="5" markerWidth="6" markerHeight="6" orient="auto-start-reverse">
<path d="M2 1L8 5L2 9" fill="none" stroke="context-stroke" stroke-width="1.5" stroke-linecap="round" stroke-linejoin="round"/>
</marker>
</defs>

<rect x="0" y="0" width="680" height="332" fill="#FFFFFF"/>
<rect x="40" y="40" width="600" height="44" rx="10" fill="#EEEDFE" stroke="#534AB7" stroke-width="0.5"/>
<text x="340" y="62" font-size="13" fill="#3C3489" text-anchor="middle" dominant-baseline="central">导入 PDF 文件 · 拖拽 / 文件选择 / 监视文件夹</text>

<path d="M340 84 V112" fill="none" stroke="#888780" stroke-width="1"/>
<path d="M92 112 H588" fill="none" stroke="#888780" stroke-width="1"/>
<path d="M92 112 V134" fill="none" stroke="#888780" stroke-width="1" marker-end="url(#arrow)"/>
<path d="M257 112 V134" fill="none" stroke="#888780" stroke-width="1" marker-end="url(#arrow)"/>
<path d="M422 112 V134" fill="none" stroke="#888780" stroke-width="1" marker-end="url(#arrow)"/>
<path d="M587 112 V134" fill="none" stroke="#888780" stroke-width="1" marker-end="url(#arrow)"/>

<rect x="40" y="136" width="105" height="64" rx="8" fill="#E6F1FB" stroke="#185FA5" stroke-width="0.5"/>
<text x="92" y="160" font-size="13" fill="#0C447C" text-anchor="middle" dominant-baseline="central">指纹去重</text>
<text x="92" y="178" font-size="11" fill="#185FA5" text-anchor="middle" dominant-baseline="central">内容 SHA-256</text>

<rect x="205" y="136" width="105" height="64" rx="8" fill="#E6F1FB" stroke="#185FA5" stroke-width="0.5"/>
<text x="257" y="160" font-size="13" fill="#0C447C" text-anchor="middle" dominant-baseline="central">元数据抽取</text>
<text x="257" y="178" font-size="11" fill="#185FA5" text-anchor="middle" dominant-baseline="central">DOI · arXiv</text>

<rect x="370" y="136" width="105" height="64" rx="8" fill="#E6F1FB" stroke="#185FA5" stroke-width="0.5"/>
<text x="422" y="160" font-size="13" fill="#0C447C" text-anchor="middle" dominant-baseline="central">内容提取</text>
<text x="422" y="178" font-size="11" fill="#185FA5" text-anchor="middle" dominant-baseline="central">文本 · 图像 · 坐标</text>

<rect x="535" y="136" width="105" height="64" rx="8" fill="#E6F1FB" stroke="#185FA5" stroke-width="0.5"/>
<text x="587" y="160" font-size="13" fill="#0C447C" text-anchor="middle" dominant-baseline="central">版面分析</text>
<text x="587" y="178" font-size="11" fill="#185FA5" text-anchor="middle" dominant-baseline="central">阅读顺序重建</text>

<path d="M145 168 H203" fill="none" stroke="#888780" stroke-width="1" marker-end="url(#arrow)"/>
<path d="M310 168 H368" fill="none" stroke="#888780" stroke-width="1" marker-end="url(#arrow)"/>
<path d="M475 168 H533" fill="none" stroke="#888780" stroke-width="1" marker-end="url(#arrow)"/>

<path d="M92 200 V224" fill="none" stroke="#888780" stroke-width="1"/>
<path d="M257 200 V224" fill="none" stroke="#888780" stroke-width="1"/>
<path d="M422 200 V224" fill="none" stroke="#888780" stroke-width="1"/>
<path d="M587 200 V224" fill="none" stroke="#888780" stroke-width="1"/>
<path d="M92 224 H588" fill="none" stroke="#888780" stroke-width="1"/>
<path d="M340 224 V246" fill="none" stroke="#888780" stroke-width="1" marker-end="url(#arrow)"/>

<rect x="40" y="248" width="160" height="64" rx="8" fill="#E1F5EE" stroke="#0F6E56" stroke-width="0.5"/>
<text x="120" y="272" font-size="13" fill="#085041" text-anchor="middle" dominant-baseline="central">Block 表</text>
<text x="120" y="290" font-size="11" fill="#0F6E56" text-anchor="middle" dominant-baseline="central">类型 · 坐标 · 阅读序</text>

<rect x="260" y="248" width="160" height="64" rx="8" fill="#E1F5EE" stroke="#0F6E56" stroke-width="0.5"/>
<text x="340" y="272" font-size="13" fill="#085041" text-anchor="middle" dominant-baseline="central">Segment 表</text>
<text x="340" y="290" font-size="11" fill="#0F6E56" text-anchor="middle" dominant-baseline="central">翻译单元 · 状态</text>

<rect x="480" y="248" width="160" height="64" rx="8" fill="#E1F5EE" stroke="#0F6E56" stroke-width="0.5"/>
<text x="560" y="272" font-size="13" fill="#085041" text-anchor="middle" dominant-baseline="central">资产与索引</text>
<text x="560" y="290" font-size="11" fill="#0F6E56" text-anchor="middle" dominant-baseline="central">裁剪图 · FTS5</text>
</svg>
